<?xml version="1.0" standalone="no"?>
<!DOCTYPE svg PUBLIC "-//W3C//DTD SVG 20010904//EN"
 "http://www.w3.org/TR/2001/REC-SVG-20010904/DTD/svg10.dtd">
<svg version="1.0" xmlns="http://www.w3.org/2000/svg"
 width="292.000000pt" height="292.000000pt" viewBox="0 0 292.000000 292.000000"
 preserveAspectRatio="xMidYMid meet">
<metadata>
Created by potrace 1.11, written by Peter Selinger 2001-2013
</metadata>
<g transform="translate(0.000000,292.000000) scale(0.100000,-0.100000)"
fill="#000000" stroke="none">
<path d="M501 2024 c0 -11 3 -14 6 -6 3 7 2 16 -1 19 -3 4 -6 -2 -5 -13z"/>
<path d="M1922 1994 c-18 -21 -36 -58 -41 -86 -6 -26 -17 -63 -25 -82 -10 -25
-154 -222 -302 -414 -1 -2 -60 13 -131 33 -70 20 -176 49 -235 65 -59 15 -133
38 -165 51 -49 19 -76 23 -173 22 -63 0 -127 -5 -142 -11 -24 -10 -29 -9 -39
9 -6 12 -31 30 -56 41 -41 18 -63 19 -107 2 -13 -5 -16 9 -19 98 l-3 103 -2
-105 c0 -58 -1 -109 -2 -115 0 -5 -8 -1 -17 10 l-16 20 7 -20 c4 -11 8 -22 8
-25 1 -3 -10 -27 -22 -55 -21 -43 -24 -68 -27 -175 -2 -109 0 -135 22 -205 16
-55 34 -89 53 -108 22 -21 31 -41 35 -74 5 -43 2 -48 -34 -83 -21 -20 -39 -44
-39 -54 0 -9 -31 -82 -70 -162 -38 -80 -70 -149 -70 -153 0 -16 -58 -32 -92
-26 -26 5 -39 2 -58 -15 l-25 -21 41 6 c31 5 44 2 54 -10 10 -12 23 -15 51
-10 22 4 40 2 44 -4 3 -6 19 -11 36 -11 49 0 93 52 124 145 48 147 72 186 165
267 47 40 97 79 113 86 15 6 27 16 27 22 0 19 42 0 67 -31 50 -59 216 -129
307 -129 23 0 59 -9 82 -22 l41 -21 6 -150 c4 -82 10 -153 13 -158 3 -5 82 -8
184 -7 144 2 177 5 167 16 -7 6 -44 20 -82 30 l-70 17 -27 80 c-36 109 -36
115 7 115 20 0 69 -7 110 -15 50 -11 143 -16 289 -18 244 -2 225 5 226 -92 0
-73 11 -126 26 -132 8 -3 33 4 57 16 53 26 125 28 142 5 11 -15 12 -15 18 5 3
14 -1 29 -12 40 -21 21 -119 35 -154 22 -28 -11 -37 -6 -37 22 0 14 5 17 16
13 15 -6 15 -4 1 18 -9 13 -17 36 -19 52 -3 27 -1 28 47 32 28 1 73 10 102 18
71 20 162 19 170 -2 3 -8 18 -63 33 -122 19 -71 33 -108 43 -110 8 -2 32 4 52
12 21 9 60 16 87 16 41 0 50 -3 57 -22 9 -22 9 -22 16 6 7 24 4 33 -14 47 -27
22 -98 34 -150 25 -30 -5 -40 -2 -45 10 -9 22 -8 24 12 24 14 1 13 4 -7 21
-16 13 -25 32 -26 54 -1 19 -8 41 -15 50 -10 12 -9 16 6 21 104 36 170 87 180
140 3 19 10 37 15 40 21 12 8 61 -23 92 -30 29 -182 103 -270 131 -31 10 -39
19 -48 51 -6 21 -7 45 -4 54 3 9 2 16 -4 16 -6 0 -17 21 -26 47 -13 37 -13 48
-4 55 10 6 10 8 0 8 -14 0 -33 41 -37 80 -1 14 -8 39 -15 55 -6 17 -14 44 -17
60 -3 17 -11 44 -18 60 -8 17 -16 41 -18 55 -2 14 -6 32 -10 40 -3 8 -17 54
-31 101 -14 48 -32 91 -39 97 -7 6 -29 13 -48 14 -36 3 -47 17 -48 59 -1 32
-25 55 -67 63 -28 6 -35 3 -62 -30z m72 -185 c-24 -60 -55 -108 -94 -144 -32
-30 -32 -30 -25 -5 15 52 58 126 93 162 19 21 37 36 39 34 2 -2 -4 -23 -13
-47z m172 -86 c4 -16 42 -149 85 -298 42 -148 76 -272 73 -276 -6 -11 -213 65
-219 81 -4 8 -1 16 4 18 8 3 8 10 0 24 -6 11 -10 41 -8 66 1 26 -1 55 -6 65
-4 10 -5 38 -2 63 2 24 0 47 -5 50 -5 3 -9 31 -8 62 0 32 -3 72 -6 90 -5 26
-2 37 17 56 34 34 67 33 75 -1z m-116 -276 c7 -108 11 -199 8 -202 -7 -8 -218
66 -218 76 0 14 139 289 163 323 15 21 22 25 27 15 4 -8 13 -103 20 -212z
m-1386 -418 c-17 -20 -33 -42 -36 -49 -3 -9 -13 -5 -31 14 -15 15 -27 31 -27
35 0 5 14 39 31 75 l31 67 32 -53 32 -53 -32 -36z m-93 -41 c23 -28 24 -38 4
-38 -13 0 -35 36 -35 56 0 10 13 2 31 -18z m-21 -39 c0 -6 -4 -7 -10 -4 -5 3
-10 11 -10 16 0 6 5 7 10 4 6 -3 10 -11 10 -16z m-10 -132 c0 -2 -21 -53 -46
-113 -25 -60 -55 -132 -66 -160 -13 -33 -29 -56 -44 -63 -28 -13 -57 -15 -52
-3 2 4 12 25 22 47 97 208 121 253 144 272 24 20 42 28 42 20z m853 -116 c11
-11 65 -221 58 -226 -12 -7 -100 18 -105 30 -2 7 -7 58 -11 115 l-8 103 29 -7
c16 -4 33 -11 37 -15z"/>
<path d="M492 1925 c0 -16 2 -22 5 -12 2 9 2 23 0 30 -3 6 -5 -1 -5 -18z"/>
<path d="M411 1734 c0 -11 3 -14 6 -6 3 7 2 16 -1 19 -3 4 -6 -2 -5 -13z"/>
</g>
</svg>
